<svg xmlns="http://www.w3.org/2000/svg" xmlns:xlink="http://www.w3.org/1999/xlink" version="1.1" width="256" height="256" viewBox="0 0 256 256" xml:space="preserve">

<defs>
</defs>
<g style="stroke: none; stroke-width: 0; stroke-dasharray: none; stroke-linecap: butt; stroke-linejoin: miter; stroke-miterlimit: 10; fill: none; fill-rule: nonzero; opacity: 1;" transform="translate(1.4065934065934016 1.4065934065934016) scale(2.81 2.81)" >
	<path d="M 76.173 66.173 H 13.849 h -0.022 C 6.19 66.173 0 59.983 0 52.346 c 0 -6.084 3.934 -11.238 9.393 -13.087 c -0.015 -0.296 -0.045 -0.589 -0.045 -0.889 c 0 -9.845 7.981 -17.826 17.826 -17.826 c 3.736 0 7.201 1.154 10.066 3.119 c 4.612 -6.501 12.193 -10.748 20.77 -10.748 c 14.058 0 25.455 11.397 25.455 25.455 c 0 0.736 -0.038 1.463 -0.1 2.184 C 87.339 42.983 90 47.348 90 52.346 C 90 59.983 83.81 66.173 76.173 66.173 h -0.022" style="stroke: none; stroke-width: 1; stroke-dasharray: none; stroke-linecap: butt; stroke-linejoin: miter; stroke-miterlimit: 10; fill: rgb(39,162,219); fill-rule: nonzero; opacity: 1;" transform=" matrix(1 0 0 1 0 0) " stroke-linecap="round" />
	<path d="M 67.985 77.085 H 22.015 c -1.399 0 -2.533 -1.134 -2.533 -2.533 v -32.87 c 0 -1.399 1.134 -2.533 2.533 -2.533 h 45.969 c 1.399 0 2.533 1.134 2.533 2.533 v 32.87 C 70.518 75.951 69.384 77.085 67.985 77.085 z" style="stroke: none; stroke-width: 1; stroke-dasharray: none; stroke-linecap: butt; stroke-linejoin: miter; stroke-miterlimit: 10; fill: rgb(220,234,230); fill-rule: nonzero; opacity: 1;" transform=" matrix(1 0 0 1 0 0) " stroke-linecap="round" />
	<path d="M 70.518 50.211 H 19.482 v -8.53 c 0 -1.399 1.134 -2.533 2.533 -2.533 h 45.969 c 1.399 0 2.533 1.134 2.533 2.533 V 50.211 z" style="stroke: none; stroke-width: 1; stroke-dasharray: none; stroke-linecap: butt; stroke-linejoin: miter; stroke-miterlimit: 10; fill: rgb(68,196,161); fill-rule: nonzero; opacity: 1;" transform=" matrix(1 0 0 1 0 0) " stroke-linecap="round" />
	<path d="M 38.709 72.44 c -0.552 0 -1 -0.447 -1 -1 V 58.896 c 0 -1.35 -1.098 -2.448 -2.448 -2.448 h -2.031 c -1.35 0 -2.448 1.099 -2.448 2.448 V 71.44 c 0 0.553 -0.448 1 -1 1 s -1 -0.447 -1 -1 V 58.896 c 0 -2.453 1.996 -4.448 4.448 -4.448 h 2.031 c 2.453 0 4.448 1.995 4.448 4.448 V 71.44 C 39.709 71.993 39.262 72.44 38.709 72.44 z" style="stroke: none; stroke-width: 1; stroke-dasharray: none; stroke-linecap: butt; stroke-linejoin: miter; stroke-miterlimit: 10; fill: rgb(83,86,86); fill-rule: nonzero; opacity: 1;" transform=" matrix(1 0 0 1 0 0) " stroke-linecap="round" />
	<path d="M 38.709 64.444 h -8.927 c -0.552 0 -1 -0.447 -1 -1 s 0.448 -1 1 -1 h 8.927 c 0.552 0 1 0.447 1 1 S 39.262 64.444 38.709 64.444 z" style="stroke: none; stroke-width: 1; stroke-dasharray: none; stroke-linecap: butt; stroke-linejoin: miter; stroke-miterlimit: 10; fill: rgb(83,86,86); fill-rule: nonzero; opacity: 1;" transform=" matrix(1 0 0 1 0 0) " stroke-linecap="round" />
	<path d="M 50.954 64.444 h -5.505 c -0.552 0 -1 -0.447 -1 -1 v -7.996 c 0 -0.553 0.448 -1 1 -1 h 5.505 c 2.237 0 4.058 1.82 4.058 4.058 v 1.881 C 55.012 62.624 53.191 64.444 50.954 64.444 z M 46.449 62.444 h 4.505 c 1.135 0 2.058 -0.923 2.058 -2.058 v -1.881 c 0 -1.135 -0.923 -2.058 -2.058 -2.058 h -4.505 V 62.444 z" style="stroke: none; stroke-width: 1; stroke-dasharray: none; stroke-linecap: butt; stroke-linejoin: miter; stroke-miterlimit: 10; fill: rgb(83,86,86); fill-rule: nonzero; opacity: 1;" transform=" matrix(1 0 0 1 0 0) " stroke-linecap="round" />
	<path d="M 45.449 72.44 c -0.552 0 -1 -0.447 -1 -1 v -7.996 c 0 -0.553 0.448 -1 1 -1 c 0.553 0 1 0.447 1 1 v 7.996 C 46.449 71.993 46.002 72.44 45.449 72.44 z" style="stroke: none; stroke-width: 1; stroke-dasharray: none; stroke-linecap: butt; stroke-linejoin: miter; stroke-miterlimit: 10; fill: rgb(83,86,86); fill-rule: nonzero; opacity: 1;" transform=" matrix(1 0 0 1 0 0) " stroke-linecap="round" />
	<path d="M 60.217 72.44 c -0.553 0 -1 -0.447 -1 -1 V 55.448 c 0 -0.553 0.447 -1 1 -1 s 1 0.447 1 1 V 71.44 C 61.217 71.993 60.77 72.44 60.217 72.44 z" style="stroke: none; stroke-width: 1; stroke-dasharray: none; stroke-linecap: butt; stroke-linejoin: miter; stroke-miterlimit: 10; fill: rgb(83,86,86); fill-rule: nonzero; opacity: 1;" transform=" matrix(1 0 0 1 0 0) " stroke-linecap="round" />
	<path d="M 24.667 45.68 h -0.467 c -0.552 0 -1 -0.448 -1 -1 s 0.448 -1 1 -1 h 0.467 c 0.552 0 1 0.448 1 1 S 25.22 45.68 24.667 45.68 z" style="stroke: none; stroke-width: 1; stroke-dasharray: none; stroke-linecap: butt; stroke-linejoin: miter; stroke-miterlimit: 10; fill: rgb(220,234,230); fill-rule: nonzero; opacity: 1;" transform=" matrix(1 0 0 1 0 0) " stroke-linecap="round" />
	<path d="M 29.887 45.68 H 29.42 c -0.552 0 -1 -0.448 -1 -1 s 0.448 -1 1 -1 h 0.467 c 0.552 0 1 0.448 1 1 S 30.439 45.68 29.887 45.68 z" style="stroke: none; stroke-width: 1; stroke-dasharray: none; stroke-linecap: butt; stroke-linejoin: miter; stroke-miterlimit: 10; fill: rgb(220,234,230); fill-rule: nonzero; opacity: 1;" transform=" matrix(1 0 0 1 0 0) " stroke-linecap="round" />
	<path d="M 35.107 45.68 H 34.64 c -0.552 0 -1 -0.448 -1 -1 s 0.448 -1 1 -1 h 0.467 c 0.552 0 1 0.448 1 1 S 35.659 45.68 35.107 45.68 z" style="stroke: none; stroke-width: 1; stroke-dasharray: none; stroke-linecap: butt; stroke-linejoin: miter; stroke-miterlimit: 10; fill: rgb(220,234,230); fill-rule: nonzero; opacity: 1;" transform=" matrix(1 0 0 1 0 0) " stroke-linecap="round" />
	<path d="M 65.799 45.68 H 53.36 c -0.553 0 -1 -0.448 -1 -1 s 0.447 -1 1 -1 h 12.438 c 0.553 0 1 0.448 1 1 S 66.352 45.68 65.799 45.68 z" style="stroke: none; stroke-width: 1; stroke-dasharray: none; stroke-linecap: butt; stroke-linejoin: miter; stroke-miterlimit: 10; fill: rgb(220,234,230); fill-rule: nonzero; opacity: 1;" transform=" matrix(1 0 0 1 0 0) " stroke-linecap="round" />
</g>
</svg>