<svg xmlns="http://www.w3.org/2000/svg" shape-rendering="geometricPrecision" text-rendering="geometricPrecision" image-rendering="optimizeQuality" fill-rule="evenodd" clip-rule="evenodd" viewBox="0 0 351 511.31"><path style="fill:#B71C1C;" d="M176.72 66.38c14.91-16.17 31.24-22.87 45.48-23.09V0h23.7v49.9c12.88 8.54 18.96 24.34 11.23 41.39l-24.06 53.09c-4.11 10.44-6.34 20.76-3.69 30.79 1.8 6.78 5.82 13.42 13 19.88 55.58 51.13 99.88 110.47 107.53 196.46 0 24.81 5.79 62.1-9.31 82.49-11.97 16.17-29.13 17.92-50.66 7.46-19.16 24.44-44.38 30.16-76.52 14.48-24.55 21.62-49.74 19.97-75.48-2.07-26.41 15.8-52.3 13.09-77.54-12.41-12.65 3.31-25.01 4.46-36.7.43C-5.1 471.94.43 455.71.43 430.64c0-46.77 9.08-83.51 27.48-127.04 17.81-42.11 35.26-65.17 61.01-92.75 23.79-25.48 45.21-32.37 25.24-71.64l-18.6-45.74c-7.51-18.45.63-35.33 15.37-43.87V0h23.69v43.79c13.9.44 29.12 7.07 42.1 22.59z"/></svg>