<?xml version="1.0" standalone="no"?>
<!DOCTYPE svg PUBLIC "-//W3C//DTD SVG 20010904//EN"
 "http://www.w3.org/TR/2001/REC-SVG-20010904/DTD/svg10.dtd">
<svg version="1.0" xmlns="http://www.w3.org/2000/svg"
 width="32.000000pt" height="32.000000pt" viewBox="0 0 32.000000 32.000000"
 preserveAspectRatio="xMidYMid meet">

<g transform="translate(0.000000,32.000000) scale(0.100000,-0.100000)"
fill="#000000" stroke="none">
<path d="M20 104 c0 -8 3 -14 8 -15 8 -1 56 -6 85 -8 22 -1 23 -41 1 -41 -8 0
-13 -4 -10 -8 6 -10 102 -10 112 1 4 4 0 7 -9 7 -23 0 -22 40 1 41 28 2 76 7
85 8 4 1 7 7 7 15 0 12 -26 14 -140 14 -114 0 -140 -2 -140 -14z"/>
</g>
</svg>
