<?xml version="1.0" standalone="no"?>
<!DOCTYPE svg PUBLIC "-//W3C//DTD SVG 20010904//EN"
 "http://www.w3.org/TR/2001/REC-SVG-20010904/DTD/svg10.dtd">
<svg version="1.0" xmlns="http://www.w3.org/2000/svg"
 width="32.000000pt" height="32.000000pt" viewBox="0 0 32.000000 32.000000"
 preserveAspectRatio="xMidYMid meet">

<g transform="translate(0.000000,32.000000) scale(0.100000,-0.100000)"
fill="#000000" stroke="none">
<path d="M98 294 c-59 -30 -90 -83 -88 -152 1 -26 -2 -60 -5 -75 -11 -40 19
-71 60 -63 39 8 151 8 190 0 41 -8 71 23 61 63 -4 15 -7 51 -7 78 1 28 -3 57
-9 65 -7 11 -8 1 -4 -31 4 -30 2 -49 -5 -53 -7 -5 -11 5 -11 31 0 38 -19 77
-50 100 -8 6 -12 15 -7 19 4 4 21 -6 38 -22 27 -25 30 -26 20 -6 -12 22 -98
72 -123 72 -7 -1 -34 -12 -60 -26z m94 -1 c10 -9 18 -25 18 -35 0 -11 4 -17 9
-14 14 9 42 -29 48 -68 5 -32 3 -36 -15 -36 -11 0 -28 -3 -37 -6 -18 -7 -40
-50 -36 -71 1 -8 -9 -13 -22 -13 -29 0 -42 33 -21 51 21 17 17 33 -13 47 -18
8 -30 9 -37 2 -5 -5 -16 -10 -24 -10 -20 0 -9 65 14 92 17 18 18 17 36 -21 9
-21 25 -41 33 -45 23 -8 75 21 74 42 0 14 -2 14 -9 -3 -8 -18 -9 -18 -10 5 -2
24 -3 23 -10 -5 -6 -24 -8 -26 -9 -7 0 12 -6 22 -12 22 -6 0 -9 -9 -6 -20 3
-11 1 -20 -4 -20 -5 0 -10 12 -10 28 l-1 27 -8 -30 c-7 -29 -8 -29 -10 10 -1
32 -3 36 -10 20 -7 -17 -9 -16 -9 9 -1 32 23 66 47 66 9 0 24 -7 34 -17z m-92
-23 c0 -5 -5 -10 -10 -10 -16 0 -50 -62 -50 -92 0 -15 -4 -30 -10 -33 -14 -8
-13 51 1 78 24 46 69 83 69 57z m1 -138 c-6 -10 -8 -37 -6 -60 4 -48 -12 -67
-49 -58 -27 7 -41 35 -31 66 5 16 10 18 26 10 16 -9 22 -6 40 25 21 36 38 50
20 17z m-40 -25 c-10 -9 -11 -8 -5 6 3 10 9 15 12 12 3 -3 0 -11 -7 -18z m79
20 c0 -2 -10 -12 -22 -23 l-23 -19 19 23 c18 21 26 27 26 19z m166 -59 c7 -23
-21 -58 -46 -58 -10 0 -23 7 -30 15 -11 13 -9 20 14 44 27 28 22 52 -6 35 -9
-5 -8 -2 1 9 13 17 15 16 37 -4 13 -12 26 -31 30 -41z m-194 -10 c-7 -7 -12
-8 -12 -2 0 14 12 26 19 19 2 -3 -1 -11 -7 -17z m88 -28 c0 -13 -77 -13 -85 0
-4 6 12 10 39 10 25 0 46 -4 46 -10z"/>
</g>
</svg>
